# xmcd
#
# Track frame offsets: 
#        150
#        15938
#        28139
#        40824
#        53593
#        69579
#        80906
#        93549
#        107293
#        116760
#        132775
#        149507
#        164240
#        175859
#        189534
#        203849
#        217297
#        228052
#        243454
#        256146
#        266170
#        277532
#
# Disc length: 3879 seconds
#
# Revision: 0
# Processed by: cddbd v1.5.2PL0 Copyright (c) Steve Scherf et al.
# Submitted via: ExactAudioCopyFreeDBPlugin 1.0
#
DISCID=3b0f2516
DTITLE=Various Artist - Heart Of Texas Honky Tonk
DYEAR=2011
DGENRE=Country
TTITLE0=Justin Trevino - Texas Honky Tonk
TTITLE1=Johnny Bush - Lillie's White Lies
TTITLE2=Amber Digby - We're The Kind Of People (That Make The Juke Box
TTITLE2=Play)
TTITLE3=Darrell McCall - Old Memories and Wine
TTITLE4=Tony Booth - Is This All There Is To A Honky Tonk
TTITLE5=Frankie Miller - Out Of This World
TTITLE6=Norma Jean - Honky Tonk Hardwood Floor
TTITLE7=Ferlin Husky - Champagne Ladies
TTITLE8=Floyd Tillman with George Jones - Drivin' Nails In My Coffin
TTITLE9=Curtis Potter - That's What I Do Best
TTITLE10=Landon Dodd - Call Of The Wine
TTITLE11=Al Dean - Dim Lights Thick Smoke
TTITLE12=George Hamilton IV - Ft Worth Dallas or Houston
TTITLE13=Dottsy - (After Sweet Memories) Play Born To Lose Again
TTITLE14=Joe Paul Nichols - Fraulien
TTITLE15=Georgette Jones - Second Time Around
TTITLE16=The Survivors - Whiskey Man
TTITLE17=Mona McCall - Bandera
TTITLE18=Kimberly Murray with Jake Hooker - Living and Learning
TTITLE19=Hank Thompson - You're Too Young To Cry Now
TTITLE20=Rance Norton - Wine Me Up
TTITLE21=Johnny Bush and Johnny Rodriguez - Vamoose Vamonos
EXTD=
EXTT0=
EXTT1=
EXTT2=
EXTT3=
EXTT4=
EXTT5=
EXTT6=
EXTT7=
EXTT8=
EXTT9=
EXTT10=
EXTT11=
EXTT12=
EXTT13=
EXTT14=
EXTT15=
EXTT16=
EXTT17=
EXTT18=
EXTT19=
EXTT20=
EXTT21=
PLAYORDER=
